<mxfile host="app.diagrams.net" agent="Mozilla/5.0 (Macintosh; Intel Mac OS X 10_15_7) AppleWebKit/537.36 (KHTML, like Gecko) Chrome/129.0.0.0 Safari/537.36" version="24.8.0">
  <diagram name="第 1 页" id="wqRuzdlMjsH8Ex9FWAib">
    <mxGraphModel dx="1026" dy="650" grid="1" gridSize="10" guides="1" tooltips="1" connect="1" arrows="1" fold="1" page="1" pageScale="1" pageWidth="827" pageHeight="1169" math="0" shadow="0">
      <root>
        <mxCell id="0" />
        <mxCell id="1" parent="0" />
        <mxCell id="uAed6FK6qWFAK_bdM42A-3" value="" style="edgeStyle=orthogonalEdgeStyle;rounded=0;orthogonalLoop=1;jettySize=auto;html=1;" parent="1" source="uAed6FK6qWFAK_bdM42A-1" target="uAed6FK6qWFAK_bdM42A-2" edge="1">
          <mxGeometry relative="1" as="geometry" />
        </mxCell>
        <mxCell id="uAed6FK6qWFAK_bdM42A-1" value="标签下线" style="ellipse;whiteSpace=wrap;html=1;" parent="1" vertex="1">
          <mxGeometry x="350" y="100" width="90" height="50" as="geometry" />
        </mxCell>
        <mxCell id="uAed6FK6qWFAK_bdM42A-5" value="" style="edgeStyle=orthogonalEdgeStyle;rounded=0;orthogonalLoop=1;jettySize=auto;html=1;" parent="1" source="uAed6FK6qWFAK_bdM42A-2" target="uAed6FK6qWFAK_bdM42A-4" edge="1">
          <mxGeometry relative="1" as="geometry" />
        </mxCell>
        <mxCell id="uAed6FK6qWFAK_bdM42A-6" value="不存在" style="edgeLabel;html=1;align=center;verticalAlign=middle;resizable=0;points=[];" parent="uAed6FK6qWFAK_bdM42A-5" vertex="1" connectable="0">
          <mxGeometry x="-0.1104" y="-4" relative="1" as="geometry">
            <mxPoint as="offset" />
          </mxGeometry>
        </mxCell>
        <mxCell id="uAed6FK6qWFAK_bdM42A-21" value="" style="edgeStyle=orthogonalEdgeStyle;rounded=0;orthogonalLoop=1;jettySize=auto;html=1;" parent="1" source="uAed6FK6qWFAK_bdM42A-2" target="uAed6FK6qWFAK_bdM42A-20" edge="1">
          <mxGeometry relative="1" as="geometry" />
        </mxCell>
        <mxCell id="uAed6FK6qWFAK_bdM42A-2" value="&lt;div&gt;传入code，name&lt;/div&gt;校验标签是否存在" style="rhombus;whiteSpace=wrap;html=1;" parent="1" vertex="1">
          <mxGeometry x="331.25" y="210" width="127.5" height="90" as="geometry" />
        </mxCell>
        <mxCell id="uAed6FK6qWFAK_bdM42A-4" value="返回标签不存在" style="whiteSpace=wrap;html=1;" parent="1" vertex="1">
          <mxGeometry x="127.5" y="225" width="120" height="60" as="geometry" />
        </mxCell>
        <mxCell id="uAed6FK6qWFAK_bdM42A-12" value="" style="edgeStyle=orthogonalEdgeStyle;rounded=0;orthogonalLoop=1;jettySize=auto;html=1;" parent="1" source="uAed6FK6qWFAK_bdM42A-7" target="uAed6FK6qWFAK_bdM42A-11" edge="1">
          <mxGeometry relative="1" as="geometry" />
        </mxCell>
        <mxCell id="uAed6FK6qWFAK_bdM42A-13" value="存在引用" style="edgeLabel;html=1;align=center;verticalAlign=middle;resizable=0;points=[];" parent="uAed6FK6qWFAK_bdM42A-12" vertex="1" connectable="0">
          <mxGeometry x="0.1" y="-2" relative="1" as="geometry">
            <mxPoint as="offset" />
          </mxGeometry>
        </mxCell>
        <mxCell id="uAed6FK6qWFAK_bdM42A-15" value="" style="edgeStyle=orthogonalEdgeStyle;rounded=0;orthogonalLoop=1;jettySize=auto;html=1;" parent="1" source="uAed6FK6qWFAK_bdM42A-7" target="uAed6FK6qWFAK_bdM42A-14" edge="1">
          <mxGeometry relative="1" as="geometry" />
        </mxCell>
        <mxCell id="uAed6FK6qWFAK_bdM42A-7" value="校验查询是否存在&lt;div&gt;标签、人群引用&lt;div&gt;&lt;/div&gt;&lt;/div&gt;" style="rhombus;whiteSpace=wrap;html=1;" parent="1" vertex="1">
          <mxGeometry x="331.25" y="520" width="127.5" height="90" as="geometry" />
        </mxCell>
        <mxCell id="uAed6FK6qWFAK_bdM42A-11" value="返回对应&lt;div&gt;引用标签列表和&lt;/div&gt;&lt;div&gt;人群列表&lt;/div&gt;" style="whiteSpace=wrap;html=1;" parent="1" vertex="1">
          <mxGeometry x="138.75" y="550" width="97.5" height="45" as="geometry" />
        </mxCell>
        <mxCell id="uAed6FK6qWFAK_bdM42A-17" value="" style="edgeStyle=orthogonalEdgeStyle;rounded=0;orthogonalLoop=1;jettySize=auto;html=1;" parent="1" source="uAed6FK6qWFAK_bdM42A-14" target="uAed6FK6qWFAK_bdM42A-16" edge="1">
          <mxGeometry relative="1" as="geometry" />
        </mxCell>
        <mxCell id="uAed6FK6qWFAK_bdM42A-14" value="写入审批数据库" style="shape=process;whiteSpace=wrap;html=1;backgroundOutline=1;" parent="1" vertex="1">
          <mxGeometry x="335" y="660" width="120" height="60" as="geometry" />
        </mxCell>
        <mxCell id="uAed6FK6qWFAK_bdM42A-19" value="" style="edgeStyle=orthogonalEdgeStyle;rounded=0;orthogonalLoop=1;jettySize=auto;html=1;" parent="1" source="uAed6FK6qWFAK_bdM42A-16" target="uAed6FK6qWFAK_bdM42A-18" edge="1">
          <mxGeometry relative="1" as="geometry" />
        </mxCell>
        <mxCell id="uAed6FK6qWFAK_bdM42A-16" value="修改标签规则表&lt;div&gt;将对应版本置为&lt;/div&gt;&lt;div&gt;审批中&lt;/div&gt;" style="shape=process;whiteSpace=wrap;html=1;backgroundOutline=1;" parent="1" vertex="1">
          <mxGeometry x="335" y="770" width="120" height="60" as="geometry" />
        </mxCell>
        <mxCell id="uAed6FK6qWFAK_bdM42A-18" value="返回成功，等待审批" style="whiteSpace=wrap;html=1;" parent="1" vertex="1">
          <mxGeometry x="335" y="880" width="120" height="60" as="geometry" />
        </mxCell>
        <mxCell id="uAed6FK6qWFAK_bdM42A-22" value="" style="edgeStyle=orthogonalEdgeStyle;rounded=0;orthogonalLoop=1;jettySize=auto;html=1;" parent="1" source="uAed6FK6qWFAK_bdM42A-20" target="uAed6FK6qWFAK_bdM42A-7" edge="1">
          <mxGeometry relative="1" as="geometry" />
        </mxCell>
        <mxCell id="uAed6FK6qWFAK_bdM42A-24" value="否" style="edgeStyle=orthogonalEdgeStyle;rounded=0;orthogonalLoop=1;jettySize=auto;html=1;" parent="1" source="uAed6FK6qWFAK_bdM42A-20" target="uAed6FK6qWFAK_bdM42A-23" edge="1">
          <mxGeometry relative="1" as="geometry" />
        </mxCell>
        <mxCell id="uAed6FK6qWFAK_bdM42A-20" value="校验标签版本&lt;div&gt;是否处于上线状态&lt;/div&gt;" style="rhombus;whiteSpace=wrap;html=1;" parent="1" vertex="1">
          <mxGeometry x="332.5" y="380" width="125" height="85" as="geometry" />
        </mxCell>
        <mxCell id="uAed6FK6qWFAK_bdM42A-23" value="返回不可下线" style="whiteSpace=wrap;html=1;" parent="1" vertex="1">
          <mxGeometry x="130" y="392.5" width="120" height="60" as="geometry" />
        </mxCell>
      </root>
    </mxGraphModel>
  </diagram>
</mxfile>
